<?xml version="1.0" encoding="utf-8"?>
<!-- Uploaded to: SVG Repo, www.svgrepo.com, Generator: SVG Repo Mixer Tools -->
<svg fill="#000000" width="35px" height="35px" viewBox="0 0 32 32" version="1.1" xmlns="http://www.w3.org/2000/svg">
<title>cursor</title>
<path d="M27.436 17.496l-21.345-16.449c-0.209-0.162-0.474-0.26-0.763-0.26-0.69 0-1.25 0.56-1.25 1.25 0 0.059 0.004 0.116 0.012 0.173l-0.001-0.007 3.573 26.709c0.085 0.615 0.607 1.084 1.239 1.084 0.408 0 0.771-0.196 0.999-0.499l0.002-0.003 5.551-7.42 4.916 8.513c0.221 0.373 0.621 0.618 1.078 0.618 0.69 0 1.25-0.559 1.25-1.25 0-0.228-0.061-0.441-0.167-0.625l0.003 0.006-4.915-8.513 9.203-1.099c0.624-0.076 1.102-0.603 1.102-1.241 0-0.402-0.189-0.759-0.484-0.988l-0.003-0.002zM15.44 18.568l-0.002 0.001c-0.117 0.023-0.22 0.058-0.317 0.106l0.008-0.003c-0.095 0.037-0.177 0.080-0.253 0.132l0.004-0.003c-0.111 0.073-0.207 0.158-0.288 0.256l-0.002 0.002-0.002 0.002-4.853 6.486-2.765-20.667 16.515 12.728z"></path>
</svg>